<svg viewBox="0 0 200 200" xmlns="http://www.w3.org/2000/svg">
  <ellipse cx="100" cy="184" rx="46" ry="8" fill="#163A2B" opacity="0.08"/>
  <path d="M64 170 L72 128 L128 128 L136 170 Z" fill="#8D6E63"/>
  <path d="M64 170 L72 128 L100 128 L100 170 Z" fill="#A9846F"/>
  <rect x="60" y="120" width="80" height="12" rx="6" fill="#6B4F45"/>

  <path d="M100 128 C100 92 78 66 52 58 C52 96 74 122 100 128 Z" fill="#2E7D4F"/>
  <path d="M100 128 C100 88 126 60 154 52 C156 92 132 120 100 128 Z" fill="#B7DEC0"/>
  <path d="M100 128 C100 96 96 68 84 44 C104 52 116 78 112 108 Z" fill="#4CAF7D"/>
</svg>
